<svg width="24" height="24" viewBox="0 0 24 24" fill="none" xmlns="http://www.w3.org/2000/svg">
<path d="M19 9H20C20.5304 9 21.0391 9.13546 21.4142 9.37658C21.7893 9.6177 22 9.94472 22 10.2857V16.7143C22 17.0553 21.7893 17.3823 21.4142 17.6234C21.0391 17.8645 20.5304 18 20 18L4 18C3.46957 18 2.96086 17.8645 2.58579 17.6234C2.21071 17.3823 2 17.0553 2 16.7143V10.2857C2 9.94472 2.21071 9.6177 2.58579 9.37658C2.96086 9.13546 3.46957 9 4 9H5" stroke="white" stroke-width="2" stroke-linecap="round" stroke-linejoin="round"/>
<path d="M12 11L7 5L17 5L12 11Z" stroke="white" stroke-width="2" stroke-linecap="round" stroke-linejoin="round"/>
</svg>
