<svg width="24" height="24" viewBox="0 0 24 24" fill="none" xmlns="http://www.w3.org/2000/svg">
<path d="M16.923 14.049L21.403 16.089C21.5808 16.167 21.732 16.2951 21.8382 16.4576C21.9445 16.6201 22.0011 16.81 22.0012 17.0042C22.0013 17.1983 21.9449 17.3883 21.8388 17.5509C21.7328 17.7136 21.5817 17.8418 21.404 17.92L12.83 21.82C12.5694 21.9389 12.2864 22.0004 12 22.0004C11.7136 22.0004 11.4306 21.9389 11.17 21.82L2.596 17.91C2.41855 17.8318 2.26768 17.7036 2.16176 17.5412C2.05584 17.3787 1.99945 17.1889 1.99945 16.995C1.99945 16.8011 2.05584 16.6113 2.16176 16.4489C2.26768 16.2864 2.41855 16.1583 2.596 16.08L7.08 14.04" stroke="white" stroke-width="2" stroke-linecap="round" stroke-linejoin="round"/>
<path d="M16.949 14.14C17.05 14.4945 16.9976 14.8558 16.7951 15.1993C16.5927 15.5428 16.245 15.8605 15.7757 16.131C15.3063 16.4015 14.7262 16.6184 14.0746 16.7671C13.4231 16.9157 12.7152 16.9927 11.999 16.9927C11.2828 16.9927 10.5749 16.9157 9.92335 16.7671C9.27177 16.6184 8.69167 16.4015 8.22231 16.131C7.75295 15.8605 7.40529 15.5428 7.20286 15.1993C7.00043 14.8558 6.94796 14.4945 7.04899 14.14L10.063 3.49999C10.1735 3.07023 10.4238 2.68941 10.7744 2.4175C11.1251 2.14559 11.5563 1.99802 12 1.99802C12.4437 1.99802 12.8749 2.14559 13.2255 2.4175C13.5762 2.68941 13.8265 3.07023 13.937 3.49999L16.949 14.14Z" stroke="white" stroke-width="2" stroke-linecap="round" stroke-linejoin="round"/>
</svg>
